<svg xmlns="http://www.w3.org/2000/svg" xmlns:xlink="http://www.w3.org/1999/xlink" viewBox="0 0 783.13 390.61"><defs><style>.cls-1{fill:url(#linear-gradient);}.cls-2{fill:url(#linear-gradient-2);}.cls-3{fill:url(#linear-gradient-3);}.cls-4{fill:url(#linear-gradient-4);}.cls-5{fill:url(#Orange_Yellow);}.cls-6{fill:#231f20;}.cls-7{fill:url(#linear-gradient-5);}.cls-8{fill:url(#Orange_Yellow-2);}.cls-9{fill:url(#Orange_Yellow-3);}.cls-10{fill:url(#Orange_Yellow-4);}.cls-11{fill:url(#linear-gradient-6);}.cls-12{fill:url(#linear-gradient-7);}.cls-13{fill:#fff3ec;}.cls-14{fill:url(#linear-gradient-8);}.cls-15{clip-path:url(#clip-path);}.cls-16{fill:url(#linear-gradient-50);}.cls-17{clip-path:url(#clip-path-2);}.cls-18{clip-path:url(#clip-path-3);}.cls-19{clip-path:url(#clip-path-4);}.cls-20{fill:url(#linear-gradient-180);}.cls-21{fill:url(#linear-gradient-181);}.cls-22{fill:url(#White_Black);}.cls-23{fill:url(#White_Black-2);}.cls-24{fill:url(#White_Black-3);}.cls-25{fill:url(#White_Black-4);}.cls-26{fill:url(#White_Black-5);}.cls-27{fill:url(#White_Black-6);}.cls-28{fill:url(#White_Black-7);}.cls-29{fill:url(#White_Black-8);}.cls-30{fill:url(#White_Black-9);}</style><linearGradient id="linear-gradient" x1="410.82" y1="332.69" x2="410.82" y2="166.73" gradientUnits="userSpaceOnUse"><stop offset="0" stop-color="#fff"/><stop offset="0.1" stop-color="#e4e3e3"/><stop offset="0.43" stop-color="#929091"/><stop offset="0.7" stop-color="#565354"/><stop offset="0.9" stop-color="#312d2e"/><stop offset="1" stop-color="#231f20"/></linearGradient><linearGradient id="linear-gradient-2" x1="496.8" y1="332.69" x2="496.8" y2="166.73" xlink:href="#linear-gradient"/><linearGradient id="linear-gradient-3" x1="580.48" y1="332.69" x2="580.48" y2="166.73" xlink:href="#linear-gradient"/><linearGradient id="linear-gradient-4" x1="692.18" y1="332.69" x2="692.18" y2="166.73" xlink:href="#linear-gradient"/><linearGradient id="Orange_Yellow" x1="391.04" y1="-210.25" x2="391.04" y2="519.75" gradientUnits="userSpaceOnUse"><stop offset="0" stop-color="#fff33b"/><stop offset="0.04" stop-color="#fee72e"/><stop offset="0.12" stop-color="#fed51b"/><stop offset="0.2" stop-color="#fdca10"/><stop offset="0.28" stop-color="#fdc70c"/><stop offset="0.67" stop-color="#f3903f"/><stop offset="0.89" stop-color="#ed683c"/><stop offset="1" stop-color="#e93e3a"/></linearGradient><linearGradient id="linear-gradient-5" x1="379.4" y1="299.79" x2="379.4" y2="222.81" gradientUnits="userSpaceOnUse"><stop offset="0" stop-color="#3b64af"/><stop offset="0.52" stop-color="#00a0dd"/><stop offset="0.72" stop-color="#6cc8eb"/><stop offset="1" stop-color="#fff"/></linearGradient><linearGradient id="Orange_Yellow-2" x1="381.15" y1="269.68" x2="378.89" y2="190.91" xlink:href="#Orange_Yellow"/><linearGradient id="Orange_Yellow-3" x1="250.92" y1="239.74" x2="249.58" y2="193.12" xlink:href="#Orange_Yellow"/><linearGradient id="Orange_Yellow-4" x1="507.51" y1="239.01" x2="506.13" y2="190.89" xlink:href="#Orange_Yellow"/><linearGradient id="linear-gradient-6" x1="255.7" y1="342.88" x2="255.7" y2="202.88" xlink:href="#linear-gradient-5"/><linearGradient id="linear-gradient-7" x1="499.28" y1="342.88" x2="499.28" y2="202.88" xlink:href="#linear-gradient-5"/><linearGradient id="linear-gradient-8" x1="281.18" y1="332.69" x2="281.18" y2="166.73" xlink:href="#linear-gradient"/><clipPath id="clip-path"><path class="cls-1" d="M392.74,106.9l.78,22h15.31l.06.9h-.07l.07,1h-.07l.07,1h-.07l.07,1h-.07l.07,1h-.07l.07,1h-.07l.07,1h-.07l.07,1h-.07l.07,1h-.07l.07,1h-.07l.74,10.49h22.59L430.88,138H410.3l-1.48-21.16h49.32v0l0,0v-9.9Zm-28.59,66.74.24-9.41h-13v3c0,.3,0,.62,0,1v0h0v1h0v1h0v1h0v1h0v1h0v1h0v1h0v1h0v1h0v1h0v1h0v1h0v1h0v1h0v1h0v1h0v1h0c0,.6,0,1,0,1h12.79v9.41H470.27v-22Z"/></clipPath><linearGradient id="linear-gradient-50" x1="425.45" y1="332.69" x2="425.45" y2="166.73" xlink:href="#linear-gradient"/><clipPath id="clip-path-2"><polygon class="cls-2" points="527.75 173.64 527.75 195.64 483.54 195.64 465.86 110.34 465.86 88.34 466.07 89.34 483.54 173.64 527.75 173.64"/></clipPath><clipPath id="clip-path-3"><polygon class="cls-3" points="647.14 173.64 647.14 195.64 541.02 195.64 513.82 110.34 513.82 88.34 514.14 89.34 541.02 173.64 647.14 173.64"/></clipPath><clipPath id="clip-path-4"><polygon class="cls-4" points="770.94 175.64 770.17 175.64 770.94 176.64 770.17 176.64 770.94 177.64 770.17 177.64 770.94 178.64 770.17 178.64 770.94 179.64 770.17 179.64 770.94 180.64 770.17 180.64 770.94 181.64 770.17 181.64 770.94 182.64 770.17 182.64 770.94 183.64 770.17 183.64 770.94 184.64 770.17 184.64 770.94 185.64 770.17 185.64 770.94 186.64 770.17 186.64 770.94 187.64 770.17 187.64 770.94 188.64 770.17 188.64 770.94 189.64 770.17 189.64 770.94 190.64 770.17 190.64 770.94 191.64 770.17 191.64 770.94 192.64 770.17 192.64 770.94 193.64 770.17 193.64 770.94 194.64 770.17 194.64 770.94 195.64 660.4 195.64 649.31 175.5 646.99 171.29 646.99 159.96 640.75 159.96 623.65 128.92 623.58 128.78 616.98 116.8 613.42 110.34 613.42 88.34 613.97 89.34 640.75 137.96 702.47 137.96 710.17 149.29 646.99 149.29 660.4 173.64 770.17 173.64 770.94 174.64 770.17 174.64 770.94 175.64"/></clipPath><linearGradient id="linear-gradient-180" x1="95.75" y1="332.69" x2="95.75" y2="166.73" xlink:href="#linear-gradient"/><linearGradient id="linear-gradient-181" x1="197.11" y1="332.69" x2="197.11" y2="166.73" xlink:href="#linear-gradient"/><linearGradient id="White_Black" x1="197.11" y1="58.35" x2="197.11" y2="218.36" gradientUnits="userSpaceOnUse"><stop offset="0" stop-color="#fff"/><stop offset="1" stop-color="#231f20"/></linearGradient><linearGradient id="White_Black-2" x1="95.75" y1="58.35" x2="95.75" y2="218.36" xlink:href="#White_Black"/><linearGradient id="White_Black-3" x1="281.18" y1="58.35" x2="281.18" y2="218.36" xlink:href="#White_Black"/><linearGradient id="White_Black-4" x1="464.12" y1="58.35" x2="464.13" y2="218.36" xlink:href="#White_Black"/><linearGradient id="White_Black-5" x1="410.73" y1="58.35" x2="410.73" y2="218.36" xlink:href="#White_Black"/><linearGradient id="White_Black-6" x1="496.8" y1="58.35" x2="496.8" y2="218.36" xlink:href="#White_Black"/><linearGradient id="White_Black-7" x1="620.28" y1="58.35" x2="620.28" y2="218.36" xlink:href="#White_Black"/><linearGradient id="White_Black-8" x1="580.48" y1="58.35" x2="580.48" y2="218.36" xlink:href="#White_Black"/><linearGradient id="White_Black-9" x1="692.18" y1="58.35" x2="692.18" y2="218.36" xlink:href="#White_Black"/></defs><title>Asset 3</title><g id="Layer_2" data-name="Layer 2"><g id="Layer_1-2" data-name="Layer 1"><path class="cls-5" d="M625.33,0h-475L26,390.61H756ZM493.86,291.23H425.5l-1.78-44.33H358.48l-1.34,44.33H288.79L283.89,340H104.4L185.19,47.62H313.25L302.77,152H332l2.15-32.75H446.7L449.17,152h29.28L466.91,47.62H595L678.73,340H499.26Z"/><polygon class="cls-6" points="453.15 189.31 449.95 189.31 399.9 189.31 399.05 200.51 382.21 200.51 381.78 211.2 376.32 211.2 376.32 200.51 359.49 200.51 359.14 189.31 308.85 189.31 305.65 189.31 191.21 189.31 191.21 223.79 221.36 305.29 315.55 305.29 321.06 305.29 361.91 305.29 361.24 284.04 394.86 284.04 393.26 305.29 434.08 305.29 439.66 305.29 480.69 305.29 487.92 279.51 540.8 279.51 563.33 223.88 563.33 189.31 453.15 189.31"/><polygon class="cls-7" points="447.65 222.81 434.99 299.79 399.19 299.79 401.48 269.39 393.78 269.39 393.25 278.54 363.1 278.54 362.97 269.39 355.27 269.39 356.23 299.79 320.43 299.79 311.15 222.81 353.81 222.81 354.16 234.01 370.82 234.01 370.78 244.7 387.06 244.7 387.49 234.01 404.15 234.01 405 222.81 447.65 222.81"/><polygon class="cls-8" points="447.65 194.81 447.65 222.81 405 222.81 404.15 234.01 387.49 234.01 387.06 244.7 370.78 244.7 370.82 234.01 354.16 234.01 353.81 222.81 311.15 222.81 311.15 194.81 353.81 194.81 354.16 206.01 370.82 206.01 370.82 216.7 387.06 216.7 387.49 206.01 404.15 206.01 405 194.81 447.65 194.81"/><rect class="cls-9" x="196.71" y="194.81" width="106.64" height="28"/><rect class="cls-10" x="455.45" y="194.81" width="102.38" height="28"/><path class="cls-11" d="M225.19,299.79,219,283h55.94L272.8,274H215.65l-18.94-51.2H303.35l3.22,21.88H245.51l2.87,10.21h59.7l6.61,44.89Z"/><path class="cls-12" d="M440.73,299.79l14.72-77H557.83L537.09,274H483.75l-7.23,25.78ZM505,254.9l3.23-10.21H492l-2.86,10.21Z"/><rect class="cls-13" x="196.71" y="219.75" width="106.65" height="3.05"/><rect class="cls-13" x="311.15" y="219.75" width="42.66" height="3.05"/><rect class="cls-13" x="405" y="219.75" width="42.65" height="3.05"/><rect class="cls-13" x="455.38" y="219.75" width="102.52" height="3.05"/><rect class="cls-13" x="354.18" y="230.88" width="16.59" height="3.05"/><rect class="cls-13" x="387.5" y="230.88" width="16.76" height="3.05"/><rect class="cls-13" x="370.78" y="241.64" width="16.28" height="3.05"/><polygon class="cls-6" points="783.13 181.64 782.36 181.64 783.13 182.64 782.36 182.64 783.13 183.64 782.36 183.64 783.13 184.64 782.36 184.64 783.13 185.64 782.36 185.64 783.13 186.64 782.36 186.64 783.13 187.64 782.36 187.64 783.13 188.64 782.36 188.64 783.13 189.64 782.36 189.64 783.13 190.64 782.36 190.64 783.13 191.64 782.36 191.64 783.13 192.64 782.36 192.64 783.13 193.64 782.36 193.64 783.13 194.64 782.36 194.64 783.13 195.64 782.36 195.64 783.13 196.64 782.36 196.64 783.13 197.64 782.36 197.64 783.13 198.64 782.36 198.64 783.13 199.64 782.36 199.64 783.13 200.64 782.36 200.64 783.13 201.64 358.15 201.64 358.15 192.23 345.39 192.23 345.39 201.64 91.39 201.64 91.39 189.17 86.65 189.17 86.65 177.29 85.92 177.29 78.79 189.17 61.43 189.17 53.52 201.64 0 201.64 0 171.7 64.39 82.34 115.31 82.34 108.76 92.58 100.38 105.79 132.54 105.79 145 82.34 288.87 82.34 286.36 93.76 300.28 93.76 302.14 82.34 350.13 82.34 350.13 89.12 360.24 89.12 360.41 82.34 708.6 82.34 783.09 179.64 782.36 179.64 783.13 180.64 782.36 180.64 783.13 181.64"/><polygon class="cls-14" points="344.13 88.34 344.13 110.34 344.06 110.25 344.05 110.34 344.13 110.34 337.62 195.64 293.41 195.64 293.41 180.15 278.77 180.15 278.77 165.56 269.14 165.56 262.46 195.64 218.24 195.64 218.24 173.64 262.46 173.64 269.14 143.56 281.63 143.56 278.77 158.15 295.92 158.15 293.41 173.64 337.62 173.64 344.05 89.34 344.13 88.34"/><path class="cls-1" d="M392.74,106.9l.78,22h15.31l.06.9h-.07l.07,1h-.07l.07,1h-.07l.07,1h-.07l.07,1h-.07l.07,1h-.07l.07,1h-.07l.07,1h-.07l.07,1h-.07l.07,1h-.07l.74,10.49h22.59L430.88,138H410.3l-1.48-21.16h49.32v0l0,0v-9.9Zm-28.59,66.74.24-9.41h-13v3c0,.3,0,.62,0,1v0h0v1h0v1h0v1h0v1h0v1h0v1h0v1h0v1h0v1h0v1h0v1h0v1h0v1h0v1h0v1h0v1h0v1h0c0,.6,0,1,0,1h12.79v9.41H470.27v-22Z"/><g class="cls-15"><rect class="cls-1" x="351.36" y="195.27" width="118.91" height="0.37"/><rect class="cls-1" x="351.36" y="194.78" width="118.91" height="0.49"/><rect class="cls-1" x="351.36" y="194.29" width="118.91" height="0.49"/><rect class="cls-1" x="351.36" y="193.8" width="118.91" height="0.49"/><rect class="cls-1" x="351.36" y="193.31" width="118.91" height="0.49"/><rect class="cls-1" x="351.36" y="192.82" width="118.91" height="0.49"/><rect class="cls-1" x="351.36" y="192.33" width="118.91" height="0.49"/><rect class="cls-1" x="351.36" y="191.84" width="118.91" height="0.49"/><rect class="cls-1" x="351.36" y="191.35" width="118.91" height="0.49"/><rect class="cls-1" x="351.36" y="190.86" width="118.91" height="0.49"/><rect class="cls-1" x="351.36" y="190.37" width="118.91" height="0.49"/><rect class="cls-1" x="351.36" y="189.88" width="118.91" height="0.49"/><rect class="cls-1" x="351.36" y="189.39" width="118.91" height="0.49"/><rect class="cls-1" x="351.36" y="188.9" width="118.91" height="0.49"/><rect class="cls-1" x="351.36" y="188.41" width="118.91" height="0.49"/><rect class="cls-1" x="351.36" y="187.92" width="118.91" height="0.49"/><rect class="cls-1" x="351.36" y="187.43" width="118.91" height="0.49"/><rect class="cls-1" x="351.36" y="186.94" width="118.91" height="0.49"/><rect class="cls-1" x="351.36" y="186.45" width="118.91" height="0.49"/><rect class="cls-1" x="351.36" y="185.96" width="118.91" height="0.49"/><rect class="cls-1" x="351.36" y="185.47" width="118.91" height="0.49"/><rect class="cls-1" x="351.36" y="184.98" width="118.91" height="0.49"/><rect class="cls-1" x="351.36" y="184.49" width="118.91" height="0.49"/><rect class="cls-1" x="351.36" y="184" width="118.91" height="0.49"/><rect class="cls-1" x="351.36" y="183.51" width="118.91" height="0.49"/><rect class="cls-1" x="351.36" y="183.03" width="118.91" height="0.49"/><rect class="cls-1" x="351.36" y="182.54" width="118.91" height="0.49"/><rect class="cls-1" x="351.36" y="182.05" width="118.91" height="0.49"/><rect class="cls-1" x="351.36" y="181.56" width="118.91" height="0.49"/><rect class="cls-1" x="351.36" y="181.07" width="118.91" height="0.49"/><rect class="cls-1" x="351.36" y="180.58" width="118.91" height="0.49"/><rect class="cls-1" x="351.36" y="180.09" width="118.91" height="0.49"/><rect class="cls-1" x="351.36" y="179.6" width="118.91" height="0.49"/><rect class="cls-1" x="351.36" y="179.11" width="118.91" height="0.49"/><rect class="cls-1" x="351.36" y="178.62" width="118.91" height="0.49"/><rect class="cls-1" x="351.36" y="178.13" width="118.91" height="0.49"/><rect class="cls-1" x="351.36" y="177.64" width="118.91" height="0.49"/><rect class="cls-1" x="351.36" y="177.15" width="118.91" height="0.49"/><rect class="cls-1" x="351.36" y="175.68" width="118.91" height="0.49"/><rect class="cls-1" x="351.36" y="164.23" width="118.91" height="11.45"/><rect class="cls-16" x="392.74" y="106.9" width="65.42" height="42.39"/></g><polygon class="cls-2" points="527.75 173.64 527.75 195.64 483.54 195.64 465.86 110.34 465.86 88.34 466.07 89.34 483.54 173.64 527.75 173.64"/><g class="cls-17"><rect class="cls-2" x="465.86" y="195.2" width="61.89" height="0.45"/><rect class="cls-2" x="465.86" y="194.61" width="61.89" height="0.59"/><rect class="cls-2" x="465.86" y="194.02" width="61.89" height="0.59"/><rect class="cls-2" x="465.86" y="193.44" width="61.89" height="0.59"/><rect class="cls-2" x="465.86" y="192.85" width="61.89" height="0.59"/><rect class="cls-2" x="465.86" y="192.26" width="61.89" height="0.59"/><rect class="cls-2" x="465.86" y="191.68" width="61.89" height="0.59"/><rect class="cls-2" x="465.86" y="191.09" width="61.89" height="0.59"/><rect class="cls-2" x="465.86" y="190.5" width="61.89" height="0.59"/><rect class="cls-2" x="465.86" y="189.92" width="61.89" height="0.59"/><rect class="cls-2" x="465.86" y="189.33" width="61.89" height="0.59"/><rect class="cls-2" x="465.86" y="188.74" width="61.89" height="0.59"/><rect class="cls-2" x="465.86" y="188.16" width="61.89" height="0.59"/><rect class="cls-2" x="465.86" y="187.57" width="61.89" height="0.59"/><rect class="cls-2" x="465.86" y="186.98" width="61.89" height="0.59"/><rect class="cls-2" x="465.86" y="186.4" width="61.89" height="0.59"/><rect class="cls-2" x="465.86" y="185.81" width="61.89" height="0.59"/><rect class="cls-2" x="465.86" y="185.22" width="61.89" height="0.59"/><rect class="cls-2" x="465.86" y="184.64" width="61.89" height="0.59"/><rect class="cls-2" x="465.86" y="184.05" width="61.89" height="0.59"/><rect class="cls-2" x="465.86" y="183.46" width="61.89" height="0.59"/><rect class="cls-2" x="465.86" y="182.88" width="61.89" height="0.59"/><rect class="cls-2" x="465.86" y="182.29" width="61.89" height="0.59"/><rect class="cls-2" x="465.86" y="181.7" width="61.89" height="0.59"/><rect class="cls-2" x="465.86" y="181.12" width="61.89" height="0.59"/><rect class="cls-2" x="465.86" y="180.53" width="61.89" height="0.59"/><rect class="cls-2" x="465.86" y="179.94" width="61.89" height="0.59"/><rect class="cls-2" x="465.86" y="179.35" width="61.89" height="0.59"/><rect class="cls-2" x="465.86" y="178.77" width="61.89" height="0.59"/><rect class="cls-2" x="465.86" y="178.18" width="61.89" height="0.59"/><rect class="cls-2" x="465.86" y="177.59" width="61.89" height="0.59"/><rect class="cls-2" x="465.86" y="177.01" width="61.89" height="0.59"/><rect class="cls-2" x="465.86" y="176.42" width="61.89" height="0.59"/><rect class="cls-2" x="465.86" y="175.83" width="61.89" height="0.59"/><rect class="cls-2" x="465.86" y="175.25" width="61.89" height="0.59"/><rect class="cls-2" x="465.86" y="174.66" width="61.89" height="0.59"/><rect class="cls-2" x="465.86" y="174.07" width="61.89" height="0.59"/><rect class="cls-2" x="465.86" y="173.49" width="61.89" height="0.59"/><rect class="cls-2" x="465.86" y="172.9" width="61.89" height="0.59"/><rect class="cls-2" x="465.86" y="172.31" width="61.89" height="0.59"/><rect class="cls-2" x="465.86" y="171.73" width="61.89" height="0.59"/><rect class="cls-2" x="465.86" y="88.34" width="61.89" height="83.38"/></g><polygon class="cls-3" points="647.14 173.64 647.14 195.64 541.02 195.64 513.82 110.34 513.82 88.34 514.14 89.34 541.02 173.64 647.14 173.64"/><g class="cls-18"><rect class="cls-3" x="513.82" y="195.2" width="133.32" height="0.45"/><rect class="cls-3" x="513.82" y="194.61" width="133.32" height="0.59"/><rect class="cls-3" x="513.82" y="194.02" width="133.32" height="0.59"/><rect class="cls-3" x="513.82" y="193.44" width="133.32" height="0.59"/><rect class="cls-3" x="513.82" y="192.85" width="133.32" height="0.59"/><rect class="cls-3" x="513.82" y="192.26" width="133.32" height="0.59"/><rect class="cls-3" x="513.82" y="191.68" width="133.32" height="0.59"/><rect class="cls-3" x="513.82" y="191.09" width="133.32" height="0.59"/><rect class="cls-3" x="513.82" y="190.5" width="133.32" height="0.59"/><rect class="cls-3" x="513.82" y="189.92" width="133.32" height="0.59"/><rect class="cls-3" x="513.82" y="189.33" width="133.32" height="0.59"/><rect class="cls-3" x="513.82" y="188.74" width="133.32" height="0.59"/><rect class="cls-3" x="513.82" y="188.16" width="133.32" height="0.59"/><rect class="cls-3" x="513.82" y="187.57" width="133.32" height="0.59"/><rect class="cls-3" x="513.82" y="186.98" width="133.32" height="0.59"/><rect class="cls-3" x="513.82" y="186.4" width="133.32" height="0.59"/><rect class="cls-3" x="513.82" y="185.81" width="133.32" height="0.59"/><rect class="cls-3" x="513.82" y="185.22" width="133.32" height="0.59"/><rect class="cls-3" x="513.82" y="184.64" width="133.32" height="0.59"/><rect class="cls-3" x="513.82" y="184.05" width="133.32" height="0.59"/><rect class="cls-3" x="513.82" y="183.46" width="133.32" height="0.59"/><rect class="cls-3" x="513.82" y="182.88" width="133.32" height="0.59"/><rect class="cls-3" x="513.82" y="182.29" width="133.32" height="0.59"/><rect class="cls-3" x="513.82" y="181.7" width="133.32" height="0.59"/><rect class="cls-3" x="513.82" y="181.12" width="133.32" height="0.59"/><rect class="cls-3" x="513.82" y="180.53" width="133.32" height="0.59"/><rect class="cls-3" x="513.82" y="179.94" width="133.32" height="0.59"/><rect class="cls-3" x="513.82" y="179.35" width="133.32" height="0.59"/><rect class="cls-3" x="513.82" y="178.77" width="133.32" height="0.59"/><rect class="cls-3" x="513.82" y="178.18" width="133.32" height="0.59"/><rect class="cls-3" x="513.82" y="177.59" width="133.32" height="0.59"/><rect class="cls-3" x="513.82" y="177.01" width="133.32" height="0.59"/><rect class="cls-3" x="513.82" y="176.42" width="133.32" height="0.59"/><rect class="cls-3" x="513.82" y="175.83" width="133.32" height="0.59"/><rect class="cls-3" x="513.82" y="175.25" width="133.32" height="0.59"/><rect class="cls-3" x="513.82" y="174.66" width="133.32" height="0.59"/><rect class="cls-3" x="513.82" y="174.07" width="133.32" height="0.59"/><rect class="cls-3" x="513.82" y="173.49" width="133.32" height="0.59"/><rect class="cls-3" x="513.82" y="172.9" width="133.32" height="0.59"/><rect class="cls-3" x="513.82" y="172.31" width="133.32" height="0.59"/><rect class="cls-3" x="513.82" y="171.73" width="133.32" height="0.59"/><rect class="cls-3" x="513.82" y="88.34" width="133.32" height="83.38"/></g><polygon class="cls-4" points="770.94 175.64 770.17 175.64 770.94 176.64 770.17 176.64 770.94 177.64 770.17 177.64 770.94 178.64 770.17 178.64 770.94 179.64 770.17 179.64 770.94 180.64 770.17 180.64 770.94 181.64 770.17 181.64 770.94 182.64 770.17 182.64 770.94 183.64 770.17 183.64 770.94 184.64 770.17 184.64 770.94 185.64 770.17 185.64 770.94 186.64 770.17 186.64 770.94 187.64 770.17 187.64 770.94 188.64 770.17 188.64 770.94 189.64 770.17 189.64 770.94 190.64 770.17 190.64 770.94 191.64 770.17 191.64 770.94 192.64 770.17 192.64 770.94 193.64 770.17 193.64 770.94 194.64 770.17 194.64 770.94 195.64 660.4 195.64 649.31 175.5 646.99 171.29 646.99 159.96 640.75 159.96 623.65 128.92 623.58 128.78 616.98 116.8 613.42 110.34 613.42 88.34 613.97 89.34 640.75 137.96 702.47 137.96 710.17 149.29 646.99 149.29 660.4 173.64 770.17 173.64 770.94 174.64 770.17 174.64 770.94 175.64"/><g class="cls-19"><rect class="cls-4" x="613.42" y="195.2" width="157.52" height="0.45"/><rect class="cls-4" x="613.42" y="194.61" width="157.52" height="0.59"/><rect class="cls-4" x="613.42" y="194.02" width="157.52" height="0.59"/><rect class="cls-4" x="613.42" y="193.44" width="157.52" height="0.59"/><rect class="cls-4" x="613.42" y="192.85" width="157.52" height="0.59"/><rect class="cls-4" x="613.42" y="192.26" width="157.52" height="0.59"/><rect class="cls-4" x="613.42" y="191.68" width="157.52" height="0.59"/><rect class="cls-4" x="613.42" y="191.09" width="157.52" height="0.59"/><rect class="cls-4" x="613.42" y="190.5" width="157.52" height="0.59"/><rect class="cls-4" x="613.42" y="189.92" width="157.52" height="0.59"/><rect class="cls-4" x="613.42" y="189.33" width="157.52" height="0.59"/><rect class="cls-4" x="613.42" y="188.74" width="157.52" height="0.59"/><rect class="cls-4" x="613.42" y="188.16" width="157.52" height="0.59"/><rect class="cls-4" x="613.42" y="187.57" width="157.52" height="0.59"/><rect class="cls-4" x="613.42" y="186.98" width="157.52" height="0.59"/><rect class="cls-4" x="613.42" y="186.4" width="157.52" height="0.59"/><rect class="cls-4" x="613.42" y="185.81" width="157.52" height="0.59"/><rect class="cls-4" x="613.42" y="185.22" width="157.52" height="0.59"/><rect class="cls-4" x="613.42" y="184.64" width="157.52" height="0.59"/><rect class="cls-4" x="613.42" y="184.05" width="157.52" height="0.59"/><rect class="cls-4" x="613.42" y="183.46" width="157.52" height="0.59"/><rect class="cls-4" x="613.42" y="182.88" width="157.52" height="0.59"/><rect class="cls-4" x="613.42" y="182.29" width="157.52" height="0.59"/><rect class="cls-4" x="613.42" y="181.7" width="157.52" height="0.59"/><rect class="cls-4" x="613.42" y="181.12" width="157.52" height="0.59"/><rect class="cls-4" x="613.42" y="180.53" width="157.52" height="0.59"/><rect class="cls-4" x="613.42" y="179.94" width="157.52" height="0.59"/><rect class="cls-4" x="613.42" y="179.35" width="157.52" height="0.59"/><rect class="cls-4" x="613.42" y="178.77" width="157.52" height="0.59"/><rect class="cls-4" x="613.42" y="178.18" width="157.52" height="0.59"/><rect class="cls-4" x="613.42" y="177.59" width="157.52" height="0.59"/><rect class="cls-4" x="613.42" y="177.01" width="157.52" height="0.59"/><rect class="cls-4" x="613.42" y="176.42" width="157.52" height="0.59"/><rect class="cls-4" x="613.42" y="175.83" width="157.52" height="0.59"/><rect class="cls-4" x="613.42" y="175.25" width="157.52" height="0.59"/><rect class="cls-4" x="613.42" y="174.66" width="157.52" height="0.59"/><rect class="cls-4" x="613.42" y="174.07" width="157.52" height="0.59"/><rect class="cls-4" x="613.42" y="173.49" width="157.52" height="0.59"/><rect class="cls-4" x="613.42" y="172.9" width="157.52" height="0.59"/><rect class="cls-4" x="613.42" y="172.31" width="157.52" height="0.59"/><rect class="cls-4" x="613.42" y="171.73" width="157.52" height="0.59"/><rect class="cls-4" x="613.42" y="88.34" width="157.52" height="83.38"/></g><path class="cls-20" d="M185.5,88.34v22l-38,85.3H103.28a7.37,7.37,0,0,0,0-1h0l0-.07v-.93h0l0-.08c0-.29,0-.59,0-.92h0l0-.09v-.91h0l0-.09v-.91h0l0-.09c0-.3,0-.6,0-.91h0l0-.08v-.92h0l0-.08v-.92h0l0-.07c0-.31,0-.62,0-.93h0l0-.06v-.94h0l0,0c0-.33,0-.65,0-1h0l0,0c0-.34,0-.66,0-1h0v-.47H92.65V171.29H82.52l-7.13,11.88H58.13l-7.91,12.47H6v-22H50.22l7.91-12.47H75.39l7.13-11.88H99.37l-6.72,11.88h17.26l-6.63,12.47h44.21l37.56-84.3Z"/><polygon class="cls-21" points="233.46 88.34 233.46 110.34 204.97 195.64 160.76 195.64 160.76 173.64 204.97 173.64 233.12 89.34 233.46 88.34"/><polygon class="cls-22" points="233.46 88.34 233.12 89.34 204.97 173.64 160.76 173.64 196.57 88.34 233.46 88.34"/><polygon class="cls-23" points="185.5 88.34 185.05 89.34 147.49 173.64 103.28 173.64 109.91 161.17 92.65 161.17 99.37 149.29 82.52 149.29 75.39 161.17 58.13 161.17 50.22 173.64 6 173.64 67.46 88.34 104.35 88.34 103.71 89.34 83.04 121.91 91 121.91 97.24 111.79 128.37 111.79 127.82 112.79 122.82 121.91 130.77 121.91 148.61 88.34 185.5 88.34"/><polygon class="cls-24" points="344.13 88.34 344.05 89.34 337.62 173.64 293.41 173.64 295.92 158.15 278.77 158.15 281.63 143.56 269.14 143.56 262.46 173.64 218.24 173.64 244.53 88.34 281.41 88.34 281.19 89.34 278.88 99.76 294.03 99.76 293.84 100.76 291.76 111.79 303.43 111.79 307.24 88.34 344.13 88.34"/><path class="cls-25" d="M460,116.8h-1.82l0,.1H458l.16.9H460l10.13,55.84h.18Z"/><polygon class="cls-26" points="364.15 173.64 364.39 164.23 351.36 164.23 354.85 95.12 366.09 95.12 366.26 88.34 454.79 88.34 458.16 106.9 392.74 106.9 393.52 128.9 394.24 149.29 432.15 149.29 430.88 137.96 410.3 137.96 408.82 116.8 458.14 116.8 458.16 116.9 457.98 116.9 458.14 117.8 459.96 117.8 470.09 173.64 364.15 173.64"/><polygon class="cls-27" points="527.75 173.64 483.54 173.64 466.07 89.34 465.86 88.34 502.75 88.34 527.75 173.64"/><path class="cls-28" d="M617.29,116.8H617l6.6,12Z"/><polygon class="cls-29" points="647.14 173.64 541.02 173.64 514.14 89.34 513.82 88.34 602.35 88.34 612.1 106.9 558.22 106.9 562.22 116.8 616.98 116.8 623.58 128.78 623.65 128.92 628.4 137.96 570.79 137.96 575.38 149.29 634.35 149.29 647.14 173.64"/><polygon class="cls-30" points="770.94 173.64 660.4 173.64 646.99 149.29 710.17 149.29 702.47 137.96 640.75 137.96 613.97 89.34 613.42 88.34 705.64 88.34 719.85 106.9 662.13 106.9 668.43 116.8 727.43 116.8 770.94 173.64"/></g></g></svg>